<svg width="600" height="407" viewBox="0 0 600 407" fill="none" xmlns="http://www.w3.org/2000/svg">
<g clip-path="url(#clip0_323_580)">
<path d="M40.3785 306.464C37.5294 306.464 34.6745 306.581 31.8864 306.818L31.4807 306.853C12.9873 308.489 -0.539776 317.981 0.0165533 328.932L0.124105 330.913C0.195029 332.164 0.270597 333.51 0.332797 335.003C0.366486 335.74 1.37049 336.305 2.61977 336.305H457.512C489.584 336.11 521.54 335.865 552.487 335.576C558.291 335.588 564.091 335.287 569.863 334.675C578.463 333.656 584.432 331.637 588.113 328.502H588.115C592.692 324.614 592.836 319.718 592.559 314.187C591.996 303.018 591.436 291.285 590.878 279.587C590.385 269.278 589.895 258.996 589.404 249.152C589.1 243.31 588.426 238.154 583.228 234.213C577.594 229.951 567.318 227.79 552.686 227.79C552.509 227.79 552.333 227.79 552.154 227.791C506.299 227.954 460.863 243.734 439.094 267.057C436.588 269.742 434.252 272.618 431.993 275.399C428.655 279.507 425.204 283.754 421.086 287.553C418.856 289.637 416.445 291.518 413.881 293.173C413.704 293.296 413.502 293.427 413.288 293.551C412.798 293.87 412.287 294.178 411.788 294.452C408.867 296.14 405.79 297.54 402.599 298.633L402.277 298.741C402.035 298.828 401.772 298.915 401.509 298.994C399.667 299.586 397.752 300.098 395.834 300.512C387.536 302.342 378.101 302.781 367.791 301.815C358.323 300.904 348.977 298.998 339.907 296.128C330.36 293.108 321.424 289.343 312.782 285.703C308.985 284.103 305.059 282.449 301.138 280.882C300.401 280.587 299.676 280.299 298.94 280.011C294.151 278.143 289.809 276.6 285.666 275.295C275.403 272.047 264.779 270.078 254.035 269.431C242.63 268.806 232.58 269.985 224.171 272.926C221.852 273.734 219.595 274.707 217.416 275.839C207.455 281.016 201.314 288.655 195.377 296.044C187.99 305.234 180.352 314.738 165.27 319.664C147.867 325.354 122.463 322.991 104.491 318.88C98.8403 317.587 93.1967 316.1 87.7386 314.661C85.5342 314.08 83.3282 313.503 81.1207 312.93C76.7828 311.809 73.2326 310.95 69.9481 310.225L68.9092 309.994C68.3314 309.868 67.7529 309.743 67.1641 309.623C63.2627 308.803 59.63 308.158 56.0524 307.651L55.206 307.527C53.5091 307.304 51.9226 307.117 50.3659 306.961L49.7444 306.899C46.6953 306.609 43.5398 306.464 40.3785 306.464Z" fill="white"/>
<path d="M510.764 318.686C523.564 307.143 542.602 301.339 558.572 307.812C542.19 316.914 529.554 331.522 522.898 349.05C520.356 355.82 518.232 363.614 511.979 367.238C508.088 369.493 503.247 369.604 498.885 368.515C494.522 367.426 490.523 365.244 486.578 363.083L485.456 363.058C490.494 346.568 497.964 330.23 510.764 318.686Z" fill="#CFCFDE"/>
<path d="M558.483 308.162C544.339 309.991 531.13 316.234 520.734 326.004C518.458 328.067 516.522 330.477 514.996 333.144C513.593 335.79 512.925 338.763 513.059 341.755C513.128 344.548 513.522 347.396 512.911 350.157C512.578 351.565 511.951 352.887 511.071 354.036C510.191 355.185 509.079 356.134 507.807 356.823C504.681 358.621 501.097 359.188 497.572 359.62C493.659 360.1 489.587 360.537 486.199 362.733C485.789 362.999 485.4 362.346 485.81 362.081C491.704 358.259 499.161 359.649 505.499 357.099C508.456 355.908 511.072 353.819 511.998 350.66C512.808 347.898 512.405 344.961 512.31 342.134C512.137 339.217 512.679 336.302 513.891 333.643C515.276 330.907 517.116 328.427 519.333 326.309C524.247 321.461 529.893 317.416 536.063 314.323C543.085 310.754 550.665 308.413 558.476 307.402C558.959 307.34 558.963 308.1 558.483 308.162H558.483Z" fill="white"/>
<path d="M523.896 322.661C522.495 320.693 521.839 318.29 522.044 315.882C522.25 313.475 523.304 311.218 525.019 309.516C525.367 309.173 525.916 309.699 525.567 310.042C523.968 311.624 522.986 313.726 522.799 315.968C522.612 318.211 523.233 320.446 524.548 322.271C524.834 322.668 524.18 323.056 523.896 322.661V322.661Z" fill="white"/>
<path d="M512.837 340.344C517.698 341.206 522.704 340.203 526.859 337.534C527.27 337.27 527.659 337.923 527.248 338.187C522.92 340.956 517.708 341.989 512.652 341.081C512.17 340.994 512.358 340.258 512.837 340.344Z" fill="white"/>
<path d="M543.146 311.76C543.53 312.634 544.124 313.4 544.877 313.988C545.629 314.576 546.515 314.967 547.456 315.127C547.939 315.208 547.75 315.944 547.27 315.864C546.232 315.682 545.253 315.249 544.421 314.601C543.588 313.954 542.927 313.112 542.494 312.149C542.446 312.062 542.433 311.96 542.457 311.863C542.481 311.766 542.542 311.682 542.626 311.628C542.712 311.577 542.816 311.562 542.913 311.587C543.011 311.612 543.094 311.674 543.146 311.76Z" fill="white"/>
<path d="M576.158 363.479C575.855 363.437 575.552 363.395 575.245 363.358C571.17 362.817 567.059 362.608 562.95 362.733C562.633 362.738 562.311 362.747 561.994 362.761C552.099 363.168 542.366 365.41 533.289 369.373C529.679 370.954 526.194 372.806 522.865 374.916C518.267 377.829 513.513 381.355 508.373 382.543C507.838 382.673 507.296 382.769 506.749 382.832L485.512 364.43C485.485 364.364 485.453 364.302 485.426 364.236L484.544 363.54C484.708 363.419 484.881 363.298 485.045 363.177C485.14 363.106 485.24 363.04 485.335 362.97C485.399 362.924 485.465 362.878 485.52 362.833C485.542 362.818 485.564 362.803 485.581 362.793C485.637 362.748 485.693 362.712 485.745 362.672C486.709 361.989 487.68 361.311 488.657 360.639C488.661 360.634 488.661 360.634 488.67 360.633C496.066 355.441 504.052 351.145 512.459 347.836C512.711 347.74 512.967 347.64 513.229 347.553C517.016 346.144 520.911 345.047 524.875 344.273C527.048 343.857 529.24 343.55 531.443 343.355C537.137 342.863 542.873 343.269 548.441 344.56C559.54 347.136 569.692 353.235 575.705 362.748C575.859 362.991 576.008 363.231 576.158 363.479Z" fill="#CFCFDE"/>
<path d="M575.877 363.707C563.483 356.646 549.181 353.671 535.002 355.207C531.944 355.484 528.948 356.241 526.126 357.451C523.414 358.719 521.091 360.69 519.398 363.16C517.774 365.431 516.375 367.942 514.227 369.779C513.113 370.702 511.817 371.38 510.424 371.767C509.03 372.155 507.57 372.243 506.14 372.026C502.563 371.578 499.36 369.871 496.286 368.092C492.873 366.118 489.358 364.013 485.332 363.725C484.844 363.691 484.927 362.935 485.414 362.97C492.419 363.469 497.537 369.073 504.131 370.855C507.209 371.687 510.555 371.595 513.195 369.631C515.503 367.914 516.948 365.325 518.573 363.011C520.189 360.577 522.376 358.577 524.943 357.184C527.695 355.834 530.657 354.963 533.701 354.607C540.541 353.697 547.482 353.869 554.269 355.117C562.023 356.499 569.484 359.197 576.328 363.096C576.752 363.338 576.297 363.947 575.877 363.707V363.707Z" fill="white"/>
<path d="M539.539 354.444C539.604 352.028 540.525 349.714 542.138 347.916C543.751 346.117 545.95 344.951 548.343 344.625C548.827 344.561 548.949 345.311 548.464 345.375C546.236 345.674 544.187 346.761 542.689 348.439C541.191 350.117 540.341 352.276 540.294 354.526C540.283 355.015 539.528 354.93 539.539 354.444V354.444Z" fill="white"/>
<path d="M520.071 361.899C523.433 365.516 528.034 367.732 532.956 368.104C533.444 368.141 533.361 368.896 532.874 368.86C527.753 368.463 522.97 366.147 519.479 362.376C519.146 362.016 519.74 361.542 520.071 361.899H520.071Z" fill="white"/>
<path d="M561.467 357.339C561.247 358.268 561.261 359.238 561.508 360.16C561.755 361.083 562.227 361.93 562.882 362.625C563.219 362.98 562.625 363.454 562.291 363.101C561.571 362.33 561.05 361.394 560.775 360.376C560.5 359.357 560.478 358.286 560.712 357.257C560.726 357.158 560.777 357.068 560.855 357.006C560.932 356.943 561.031 356.913 561.13 356.92C561.23 356.932 561.322 356.982 561.385 357.06C561.448 357.139 561.477 357.239 561.467 357.339Z" fill="white"/>
<path d="M175.692 330.167C186.173 314.257 204.922 302.749 223.801 305.225C208.811 319.521 199.356 338.663 197.11 359.264C196.273 367.212 196.168 376.139 190.488 381.756C186.953 385.251 181.806 386.717 176.838 386.767C171.869 386.818 166.985 385.597 162.166 384.384L160.959 384.669C161.763 365.63 165.211 346.076 175.692 330.167Z" fill="#CFCFDE"/>
<path d="M223.803 305.625C209.184 311.519 196.793 321.874 188.389 335.217C186.529 338.058 185.127 341.174 184.237 344.451C183.472 347.671 183.584 351.038 184.559 354.201C185.409 357.168 186.622 360.105 186.737 363.227C186.772 364.826 186.468 366.415 185.847 367.889C185.225 369.362 184.3 370.688 183.13 371.778C180.287 374.571 176.611 376.175 172.962 377.619C168.91 379.222 164.676 380.823 161.663 384.115C161.298 384.514 160.701 383.924 161.066 383.526C166.307 377.797 174.669 377.208 180.738 372.716C183.57 370.62 185.788 367.657 185.9 364.02C185.999 360.84 184.75 357.811 183.864 354.814C182.867 351.743 182.637 348.474 183.194 345.293C183.915 341.981 185.194 338.816 186.976 335.933C190.884 329.38 195.798 323.482 201.537 318.456C208.055 312.684 215.511 308.07 223.584 304.814C224.084 304.613 224.3 305.425 223.803 305.625L223.803 305.625Z" fill="white"/>
<path d="M190.842 330.761C188.796 329.046 187.427 326.659 186.977 324.027C186.528 321.394 187.028 318.688 188.388 316.39C188.665 315.926 189.399 316.335 189.121 316.8C187.851 318.937 187.385 321.458 187.808 323.909C188.232 326.359 189.517 328.577 191.431 330.163C191.847 330.508 191.255 331.104 190.842 330.761Z" fill="white"/>
<path d="M183.93 352.753C189.368 352.321 194.444 349.855 198.145 345.844C198.511 345.447 199.109 346.037 198.743 346.434C194.883 350.6 189.596 353.156 183.936 353.593C183.397 353.634 183.393 352.794 183.93 352.753H183.93Z" fill="white"/>
<path d="M208.4 313.743C209.054 314.571 209.902 315.224 210.87 315.644C211.838 316.063 212.895 316.235 213.946 316.144C214.485 316.096 214.487 316.937 213.952 316.984C212.791 317.079 211.624 316.888 210.553 316.427C209.483 315.966 208.542 315.25 207.811 314.341C207.735 314.261 207.693 314.155 207.692 314.045C207.691 313.934 207.732 313.828 207.807 313.747C207.885 313.668 207.992 313.623 208.103 313.623C208.214 313.622 208.321 313.665 208.4 313.743H208.4Z" fill="white"/>
<path d="M258.084 359.867C257.748 359.906 257.413 359.946 257.074 359.992C252.566 360.547 248.11 361.469 243.751 362.746C243.412 362.84 243.071 362.94 242.735 363.042C232.266 366.233 222.48 371.341 213.874 378.106C210.452 380.802 207.239 383.754 204.265 386.937C200.157 391.333 196.053 396.427 190.886 399.129C190.35 399.417 189.796 399.671 189.229 399.891L161.4 386.121C161.353 386.058 161.302 386.001 161.254 385.938L160.118 385.439C160.26 385.264 160.411 385.086 160.553 384.911C160.634 384.809 160.723 384.71 160.805 384.609C160.861 384.542 160.918 384.475 160.965 384.411C160.984 384.389 161.003 384.367 161.019 384.351C161.066 384.287 161.117 384.233 161.161 384.176C162.002 383.177 162.852 382.182 163.71 381.191C163.713 381.185 163.713 381.185 163.722 381.181C170.28 373.648 177.525 366.597 185.608 360.871C185.851 360.699 186.097 360.52 186.353 360.354C190.011 357.793 193.872 355.535 197.897 353.604C200.105 352.553 202.364 351.615 204.666 350.793C210.619 348.681 216.867 347.519 223.181 347.35C235.768 347.014 248.322 350.711 257.397 359.211C257.629 359.428 257.855 359.643 258.084 359.867Z" fill="#CFCFDE"/>
<path d="M257.847 360.189C242.628 356.087 226.505 356.888 211.768 362.479C208.574 363.626 205.58 365.27 202.898 367.35C200.35 369.46 198.413 372.215 197.289 375.328C196.183 378.21 195.385 381.285 193.598 383.848C192.664 385.145 191.466 386.231 190.083 387.033C188.7 387.835 187.164 388.336 185.574 388.502C181.624 389.019 177.724 388.085 173.941 387.039C169.742 385.877 165.398 384.604 161.012 385.418C160.48 385.517 160.359 384.686 160.889 384.587C168.52 383.171 175.552 387.74 183.1 387.809C186.622 387.842 190.176 386.812 192.453 383.977C194.444 381.497 195.27 378.326 196.365 375.399C197.417 372.346 199.2 369.597 201.558 367.393C204.126 365.183 207.052 363.427 210.209 362.199C217.272 359.321 224.743 357.573 232.349 357.018C241.026 356.337 249.755 357.146 258.16 359.41C258.68 359.55 258.363 360.329 257.847 360.189Z" fill="white"/>
<path d="M216.407 360.399C215.806 357.797 216.148 355.066 217.373 352.693C218.597 350.321 220.625 348.461 223.094 347.446C223.594 347.243 223.933 348.011 223.433 348.215C221.132 349.155 219.244 350.888 218.108 353.1C216.971 355.311 216.663 357.857 217.237 360.276C217.362 360.802 216.531 360.922 216.407 360.399H216.407Z" fill="white"/>
<path d="M197.658 373.793C202.26 376.725 207.796 377.814 213.164 376.842C213.696 376.745 213.818 377.576 213.287 377.673C207.699 378.674 201.94 377.529 197.158 374.468C196.702 374.175 197.205 373.503 197.658 373.793V373.793Z" fill="white"/>
<path d="M240.665 357.39C240.688 358.445 240.973 359.478 241.494 360.396C242.014 361.314 242.754 362.088 243.648 362.649C244.107 362.936 243.604 363.608 243.148 363.324C242.163 362.699 241.347 361.843 240.769 360.83C240.192 359.818 239.871 358.678 239.835 357.513C239.822 357.403 239.852 357.293 239.918 357.204C239.983 357.116 240.08 357.056 240.189 357.036C240.299 357.02 240.41 357.049 240.5 357.115C240.589 357.181 240.648 357.28 240.665 357.39V357.39Z" fill="white"/>
<path d="M250.285 210.888C250.98 210.196 251.515 209.359 251.853 208.437C252.19 207.515 252.322 206.531 252.238 205.552C252.154 204.574 251.856 203.626 251.367 202.776C250.877 201.925 250.207 201.192 249.404 200.628L260.357 147.574L248.54 151.306L239.727 202.631C238.87 204.044 238.561 205.723 238.859 207.349C239.156 208.975 240.04 210.435 241.341 211.453C242.642 212.471 244.272 212.975 245.92 212.871C247.568 212.767 249.121 212.062 250.285 210.888Z" fill="#FFB6B6"/>
<path d="M275.603 69.0728L268.283 63.5426C268.283 63.5426 261.825 63.0849 260.681 74.7399C259.538 86.3949 252.377 131.126 252.377 131.126L241.175 183.049L256.681 186.456L268.679 130.422L280.689 91.7637L275.603 69.0728Z" fill="#CFCFDE"/>
<path d="M270.026 165.149L234.911 137.824C234.364 137.397 234.009 136.771 233.923 136.082C233.836 135.393 234.027 134.699 234.452 134.15L258.344 103.399C258.77 102.852 259.396 102.496 260.084 102.41C260.772 102.324 261.466 102.514 262.014 102.94L297.129 130.265C297.676 130.691 298.032 131.318 298.118 132.006C298.204 132.695 298.014 133.39 297.589 133.938L273.697 164.689C273.27 165.237 272.645 165.592 271.956 165.679C271.268 165.765 270.574 165.574 270.026 165.149Z" fill="#2F2E41"/>
<path d="M269.833 162.321L237.697 137.314C237.211 136.935 236.896 136.379 236.819 135.768C236.743 135.156 236.912 134.54 237.289 134.053L258.948 106.175C259.327 105.689 259.883 105.373 260.494 105.297C261.104 105.22 261.721 105.389 262.207 105.767L294.344 130.774C294.829 131.153 295.145 131.709 295.221 132.321C295.298 132.932 295.129 133.549 294.752 134.036L273.092 161.913C272.714 162.399 272.158 162.715 271.547 162.792C270.936 162.868 270.32 162.699 269.833 162.321Z" fill="white"/>
<path d="M241.91 136.605C241.789 136.51 241.71 136.371 241.691 136.218C241.672 136.066 241.714 135.911 241.808 135.79L252.735 121.726C252.829 121.605 252.968 121.526 253.121 121.506C253.196 121.497 253.273 121.502 253.347 121.523C253.42 121.543 253.489 121.577 253.549 121.624C253.609 121.671 253.66 121.729 253.697 121.796C253.735 121.862 253.759 121.935 253.769 122.011C253.778 122.086 253.773 122.163 253.753 122.237C253.732 122.31 253.698 122.379 253.651 122.44L242.725 136.503C242.63 136.624 242.491 136.703 242.338 136.722C242.186 136.742 242.032 136.699 241.91 136.605Z" fill="white"/>
<path d="M243.721 138.014C243.6 137.919 243.521 137.78 243.502 137.628C243.482 137.475 243.525 137.32 243.619 137.199L254.546 123.135C254.64 123.014 254.779 122.935 254.932 122.916C255.084 122.896 255.239 122.939 255.36 123.033C255.482 123.128 255.561 123.267 255.58 123.42C255.599 123.573 255.557 123.727 255.462 123.849L244.536 137.912C244.441 138.034 244.302 138.113 244.149 138.132C243.997 138.151 243.843 138.109 243.721 138.014Z" fill="white"/>
<path d="M251.722 131.456C251.601 131.361 251.522 131.222 251.503 131.07C251.484 130.917 251.526 130.762 251.62 130.641L256.356 124.545C256.403 124.484 256.461 124.434 256.528 124.396C256.594 124.358 256.667 124.334 256.743 124.324C256.819 124.315 256.895 124.32 256.969 124.34C257.043 124.36 257.112 124.395 257.172 124.442C257.232 124.489 257.282 124.547 257.32 124.613C257.358 124.68 257.382 124.753 257.392 124.829C257.401 124.905 257.395 124.982 257.375 125.055C257.355 125.129 257.32 125.198 257.273 125.258L252.537 131.354C252.442 131.476 252.303 131.555 252.151 131.574C251.998 131.593 251.844 131.551 251.722 131.456Z" fill="white"/>
<path d="M254.164 143.419C254.042 143.324 253.963 143.185 253.944 143.033C253.925 142.88 253.967 142.725 254.062 142.604L271.311 120.402C271.358 120.342 271.416 120.291 271.483 120.254C271.549 120.216 271.622 120.192 271.698 120.182C271.773 120.173 271.85 120.178 271.923 120.199C271.997 120.219 272.066 120.253 272.126 120.3C272.186 120.347 272.237 120.405 272.274 120.471C272.312 120.538 272.336 120.611 272.346 120.687C272.355 120.762 272.35 120.839 272.329 120.913C272.309 120.986 272.275 121.055 272.228 121.115L254.978 143.317C254.884 143.439 254.745 143.517 254.592 143.537C254.439 143.556 254.285 143.513 254.164 143.419Z" fill="white"/>
<path d="M255.975 144.828C255.853 144.734 255.774 144.595 255.755 144.442C255.736 144.289 255.778 144.135 255.873 144.013L273.122 121.811C273.169 121.751 273.227 121.701 273.294 121.663C273.36 121.625 273.433 121.601 273.509 121.591C273.584 121.582 273.661 121.587 273.734 121.608C273.808 121.628 273.877 121.662 273.937 121.709C273.997 121.756 274.048 121.814 274.085 121.881C274.123 121.947 274.147 122.02 274.157 122.096C274.166 122.171 274.161 122.248 274.14 122.322C274.12 122.395 274.086 122.464 274.039 122.525L256.789 144.726C256.695 144.848 256.556 144.927 256.403 144.946C256.25 144.965 256.096 144.923 255.975 144.828Z" fill="white"/>
<path d="M260.085 148.027C259.964 147.932 259.885 147.793 259.866 147.641C259.847 147.488 259.889 147.333 259.984 147.212L277.233 125.01C277.28 124.95 277.338 124.899 277.404 124.862C277.471 124.824 277.544 124.8 277.619 124.79C277.695 124.781 277.772 124.786 277.845 124.807C277.919 124.827 277.988 124.861 278.048 124.908C278.108 124.955 278.158 125.013 278.196 125.079C278.234 125.146 278.258 125.219 278.267 125.295C278.277 125.37 278.271 125.447 278.251 125.521C278.231 125.594 278.196 125.663 278.15 125.723L260.9 147.925C260.806 148.047 260.667 148.126 260.514 148.145C260.361 148.164 260.207 148.121 260.085 148.027Z" fill="white"/>
<path d="M261.896 149.436C261.775 149.342 261.696 149.203 261.677 149.05C261.658 148.897 261.7 148.743 261.794 148.621L279.044 126.419C279.091 126.359 279.149 126.309 279.215 126.271C279.281 126.233 279.355 126.209 279.43 126.199C279.506 126.19 279.583 126.195 279.656 126.216C279.73 126.236 279.798 126.27 279.859 126.317C279.919 126.364 279.969 126.422 280.007 126.489C280.045 126.555 280.069 126.628 280.078 126.704C280.088 126.779 280.082 126.856 280.062 126.93C280.042 127.003 280.007 127.072 279.961 127.133L262.711 149.334C262.617 149.456 262.478 149.535 262.325 149.554C262.172 149.573 262.018 149.531 261.896 149.436Z" fill="white"/>
<path d="M266.007 152.635C265.886 152.541 265.807 152.401 265.788 152.249C265.769 152.096 265.811 151.942 265.905 151.82L283.155 129.618C283.202 129.558 283.26 129.508 283.326 129.47C283.392 129.432 283.465 129.408 283.541 129.398C283.617 129.389 283.693 129.394 283.767 129.415C283.84 129.435 283.909 129.469 283.969 129.516C284.03 129.563 284.08 129.621 284.118 129.688C284.155 129.754 284.18 129.827 284.189 129.903C284.199 129.978 284.193 130.055 284.173 130.129C284.153 130.202 284.118 130.271 284.071 130.331L266.822 152.533C266.727 152.655 266.588 152.734 266.436 152.753C266.283 152.772 266.129 152.73 266.007 152.635Z" fill="white"/>
<path d="M267.818 154.044C267.697 153.95 267.618 153.811 267.599 153.658C267.58 153.505 267.622 153.351 267.716 153.229L284.966 131.027C285.06 130.906 285.199 130.828 285.352 130.809C285.504 130.79 285.658 130.832 285.779 130.927C285.901 131.021 285.98 131.16 285.999 131.312C286.018 131.465 285.976 131.619 285.882 131.741L268.633 153.942C268.538 154.064 268.399 154.143 268.247 154.162C268.094 154.181 267.94 154.139 267.818 154.044Z" fill="white"/>
<path d="M238.989 179.828C239.12 179.828 239.227 179.721 239.227 179.59C239.227 179.458 239.12 179.351 238.989 179.351C238.857 179.351 238.75 179.458 238.75 179.59C238.75 179.721 238.857 179.828 238.989 179.828Z" fill="white"/>
<path d="M273.722 15.4572C272.883 19.9652 271.509 24.3565 269.627 28.5373C258.851 51.3511 289.538 43.915 300.505 43.915C312.495 43.915 323.968 50.225 322.215 22.1875C321.467 10.2111 312.495 0.460007 300.505 0.460007C290.263 0.460007 275.863 5.01583 273.722 15.4572Z" fill="#2F2E41"/>
<path d="M311.682 350.053H301.466L296.604 310.618H311.682V350.053Z" fill="#FFB6B6"/>
<path d="M317.073 367.767H309.747L308.44 360.845L305.09 367.767H285.66C284.728 367.767 283.821 367.469 283.071 366.917C282.321 366.364 281.767 365.586 281.489 364.696C281.212 363.807 281.227 362.851 281.53 361.97C281.834 361.089 282.411 360.328 283.178 359.798L298.695 349.074V342.076L315.016 343.05L317.073 367.767Z" fill="#2F2E41"/>
<path d="M372.374 337.15L364.176 343.251L336.762 314.51L348.861 305.506L372.374 337.15Z" fill="#FFB6B6"/>
<path d="M387.263 348.145L381.384 352.52L376.207 347.746L377.647 355.301L362.055 366.905C361.307 367.461 360.402 367.764 359.471 367.768C358.539 367.773 357.631 367.48 356.878 366.931C356.125 366.383 355.567 365.608 355.285 364.719C355.003 363.831 355.013 362.875 355.312 361.993L361.369 344.12L357.196 338.505L370.874 329.54L387.263 348.145Z" fill="#2F2E41"/>
<path d="M278.223 168.562L326.718 161.003L317.074 131.968H278.223V168.562Z" fill="#FFB6B6"/>
<path d="M323.575 146.591C323.575 146.591 342.958 163.351 334.015 211.127L323.097 257.939L352.844 309.623L337.718 317.88L301.061 266.891L284.287 227.514L275.414 158.5L323.575 146.591Z" fill="#2F2E41"/>
<path d="M293.532 238.736L292.366 256.805L295.779 310.312L312.722 316.15L315.931 261.327L293.532 238.736Z" fill="#2F2E41"/>
<path d="M288.323 49.9286L307.069 50.6604L314.539 63.0713L331.584 66.4014L321.409 117.918L323.28 147.241L306.308 147.138C294.076 147.063 282.248 151.51 273.091 159.626L273.599 121.563L266.298 93.1491L267.939 63.3554L281.651 61.64L288.323 49.9286Z" fill="#CFCFDE"/>
<path d="M298.708 43.9096C308.452 43.9096 316.351 36.0047 316.351 26.2536C316.351 16.5024 308.452 8.59756 298.708 8.59756C288.965 8.59756 281.066 16.5024 281.066 26.2536C281.066 36.0047 288.965 43.9096 298.708 43.9096Z" fill="#FFB6B6"/>
<path d="M286.728 8.25566C289.819 6.36952 293.36 5.34922 296.98 5.30146C300.601 5.25369 304.167 6.18021 307.308 7.98414C310.448 9.78806 313.046 12.4031 314.83 15.5559C316.615 18.7087 317.52 22.2834 317.452 25.9062C308.462 28.165 299.018 29.8936 289.431 26.4465L287.167 20.9013L285.832 26.4506C282.913 27.6449 279.986 28.6553 277.059 26.4391C276.939 22.8265 277.769 19.2457 279.466 16.0548C281.163 12.8639 283.667 10.1746 286.728 8.25566Z" fill="#2F2E41"/>
<path d="M328.321 182.838L330.699 204.438C330.865 204.977 331.199 205.448 331.652 205.784C332.105 206.119 332.654 206.299 333.217 206.299H344.18C344.744 206.299 345.292 206.119 345.746 205.784C346.199 205.449 346.533 204.977 346.698 204.438L348.668 187.883C349.237 188.162 349.863 188.302 350.497 188.291C351.13 188.28 351.751 188.119 352.31 187.822C352.869 187.524 353.349 187.097 353.712 186.577C354.074 186.058 354.307 185.459 354.393 184.831C354.479 184.203 354.415 183.564 354.206 182.966C353.997 182.368 353.649 181.828 353.191 181.39C352.733 180.953 352.178 180.63 351.571 180.45C350.964 180.269 350.323 180.235 349.7 180.351C349.454 180.06 349.148 179.827 348.803 179.667C348.457 179.507 348.081 179.425 347.701 179.426H330.84C330.427 179.426 330.021 179.523 329.653 179.709C329.285 179.894 328.965 180.164 328.72 180.496C328.475 180.828 328.312 181.213 328.242 181.62C328.173 182.026 328.2 182.444 328.321 182.838ZM349.013 186.763L350.219 182.838C350.359 182.385 350.373 181.903 350.259 181.442C350.311 181.44 350.359 181.427 350.411 181.427V187.145Cnan nan nan nan 350.411 187.145C349.92 187.142 349.438 187.01 349.013 186.763Z" fill="#7380EC"/>
<path d="M344.852 206.314C344.16 205.618 343.629 204.779 343.296 203.855C342.964 202.932 342.837 201.946 342.926 200.968C343.015 199.991 343.317 199.044 343.811 198.196C344.305 197.348 344.979 196.618 345.785 196.059L335.101 142.95L346.9 146.741L355.452 198.111C356.301 199.528 356.601 201.209 356.296 202.833C355.99 204.457 355.099 205.913 353.793 206.924C352.486 207.935 350.854 208.432 349.207 208.319C347.559 208.207 346.009 207.493 344.852 206.314Z" fill="#FFB6B6"/>
<path d="M324.264 71.9317L331.584 66.4015C331.584 66.4015 338.042 65.9438 339.186 77.5988C340.33 89.2538 347.491 133.985 347.491 133.985L358.693 185.908L343.186 189.315L331.188 133.281L319.178 94.6226L324.264 71.9317Z" fill="#CFCFDE"/>
<path d="M261.083 120.277C263.372 120.277 265.227 118.42 265.227 116.13C265.227 113.839 263.372 111.983 261.083 111.983C258.795 111.983 256.939 113.839 256.939 116.13C256.939 118.42 258.795 120.277 261.083 120.277Z" fill="#7380EC"/>
<path d="M128.941 398.162L137.577 398.162L141.686 364.826L128.94 364.827L128.941 398.162Z" fill="#FFB6B6"/>
<path d="M126.739 395.341L129.169 395.34L138.66 391.478L143.746 395.34H143.747C146.621 395.34 149.378 396.483 151.41 398.517C153.443 400.551 154.585 403.31 154.585 406.186V406.539L126.739 406.54L126.739 395.341Z" fill="#2F2E41"/>
<path d="M162.407 392.716L170.832 394.62L182.176 363.008L169.743 360.199L162.407 392.716Z" fill="#FFB6B6"/>
<path d="M160.88 389.478L163.251 390.014L173.358 388.338L177.469 393.227L177.47 393.227C180.274 393.86 182.711 395.583 184.246 398.015C185.781 400.447 186.288 403.39 185.655 406.196L185.577 406.54L158.415 400.402L160.88 389.478Z" fill="#2F2E41"/>
<path d="M113.132 226.687L120.941 314.25C120.941 314.25 118.015 366.818 127.457 385.316H141.15L147.93 309.449L148.781 258.526L178.138 301.488L159.439 384.076L176.293 385.584L206.635 295.956L173.3 211.817L113.132 226.687Z" fill="#2F2E41"/>
<path d="M121.31 87.246C132.433 87.246 141.45 78.2222 141.45 67.0907C141.45 55.9592 132.433 46.9354 121.31 46.9354C110.188 46.9354 101.171 55.9592 101.171 67.0907C101.171 78.2222 110.188 87.246 121.31 87.246Z" fill="#FFB6B6"/>
<path d="M156.714 106.453L140.192 99.3583L132.149 90.8205L112.056 94.0635L106.725 103.211L89.4672 119.271L109.686 210.765L109.074 230.748C109.074 230.748 122.015 236.578 178.138 223.154C178.811 222.993 177.402 222.288 177.402 222.288L156.714 106.453Z" fill="#2F2E41"/>
<path d="M100.368 78.5273C100.228 78.3357 100.089 78.1424 99.9514 77.9475C99.896 78.0645 99.852 78.1854 99.7888 78.2997L100.368 78.5273Z" fill="#2F2E41"/>
<path d="M141.344 52.348C139.998 49.413 137.598 47.0924 134.62 45.8472C131.669 44.656 128.371 44.6588 125.422 45.8552C122.759 44.1718 119.801 42.8371 116.686 42.6718C113.57 42.5065 110.276 43.6633 108.356 46.2095C107.927 46.8817 107.441 47.5148 106.901 48.1016C105.358 49.5319 103.012 49.3256 100.961 49.0331C101.881 49.8223 102.801 50.6114 103.722 51.4006C102.608 51.6918 101.494 51.9829 100.38 52.2741C101.68 53.063 102.98 53.8519 104.279 54.6408C100.506 56.9073 98.7913 61.8542 99.2443 66.347C99.6729 70.6006 101.725 74.4903 104.178 77.9475C105.156 75.8809 104.946 73.4081 104.929 71.0805C104.913 68.6212 105.347 65.8286 107.316 64.4541C108.645 63.527 110.353 63.4856 111.955 63.4944C120.034 63.5387 128.105 64.043 136.127 65.0047C137.216 65.0518 138.277 65.3599 139.222 65.903C140.996 67.1142 141.342 69.6139 141.52 71.8069C142.457 68.186 142.916 64.4576 142.885 60.7173C142.963 57.8503 142.439 54.9987 141.344 52.348Z" fill="#2F2E41"/>
<path d="M147.614 288.069C165.121 288.069 179.313 273.866 179.313 256.346C179.313 238.826 165.121 224.623 147.614 224.623C130.108 224.623 115.916 238.826 115.916 256.346C115.916 273.866 130.108 288.069 147.614 288.069Z" fill="white"/>
<path d="M147.614 223.918C145.985 223.918 144.358 224.04 142.747 224.284C141.923 224.404 141.12 224.559 140.323 224.75C134.476 226.099 129.117 229.047 124.847 233.266C120.576 237.485 117.56 242.809 116.136 248.643C114.712 254.478 114.936 260.593 116.783 266.307C118.63 272.022 122.027 277.11 126.595 281.005C127.137 281.463 127.686 281.908 128.257 282.331C132.369 285.399 137.151 287.446 142.209 288.304C147.266 289.162 152.455 288.805 157.348 287.264C162.241 285.723 166.698 283.041 170.353 279.438C174.007 275.836 176.755 271.417 178.37 266.544C179.985 261.672 180.42 256.485 179.641 251.411C178.861 246.337 176.888 241.521 173.885 237.359C170.883 233.197 166.935 229.808 162.368 227.471C157.8 225.135 152.744 223.917 147.614 223.918V223.918ZM147.614 287.364C141.024 287.371 134.605 285.263 129.3 281.351C128.722 280.928 128.166 280.491 127.623 280.025C123.173 276.268 119.87 271.332 118.095 265.782C116.32 260.232 116.143 254.294 117.586 248.649C119.029 243.003 122.033 237.879 126.252 233.864C130.472 229.849 135.737 227.105 141.444 225.948C142.232 225.786 143.021 225.659 143.825 225.56C145.082 225.404 146.347 225.327 147.614 225.328V287.364Cnan nan nan nan 147.614 287.364Z" fill="#2F2E41"/>
<path d="M132.067 250.001H163.162C164.301 250.001 165.224 249.077 165.224 247.937V247.836C165.224 246.696 164.301 245.771 163.162 245.771H132.067C130.927 245.771 130.004 246.696 130.004 247.836V247.937C130.004 249.077 130.927 250.001 132.067 250.001Z" fill="#7380EC"/>
<path d="M132.067 258.461H163.162C164.301 258.461 165.224 257.537 165.224 256.397V256.295C165.224 255.155 164.301 254.231 163.162 254.231H132.067C130.927 254.231 130.004 255.155 130.004 256.295V256.397C130.004 257.537 130.927 258.461 132.067 258.461Z" fill="#7380EC"/>
<path d="M132.067 266.92H163.162C164.301 266.92 165.224 265.996 165.224 264.856V264.755C165.224 263.615 164.301 262.69 163.162 262.69H132.067C130.927 262.69 130.004 263.615 130.004 264.755V264.856C130.004 265.996 130.927 266.92 132.067 266.92Z" fill="#7380EC"/>
<path d="M502.249 397.086L493.194 397.086L488.886 362.131L502.25 362.132L502.249 397.086Z" fill="#9E616A"/>
<path d="M459.409 397.086L450.354 397.086L446.046 362.131L459.411 362.132L459.409 397.086Z" fill="#9E616A"/>
<path d="M459.728 406.54L431.882 406.539V406.186C431.882 403.31 433.024 400.551 435.057 398.517C437.089 396.483 439.846 395.34 442.72 395.34H442.721L447.808 391.478L457.298 395.34L459.728 395.341L459.728 406.54Z" fill="#2F2E41"/>
<path d="M503.729 406.54L475.884 406.539V406.186C475.884 403.31 477.026 400.551 479.058 398.517C481.091 396.483 483.847 395.34 486.722 395.34H486.723L491.809 391.478L501.299 395.34L503.73 395.341L503.729 406.54Z" fill="#2F2E41"/>
<path d="M450.527 190.212L436.765 274.076L440.51 286.573L435.595 295.424L442.813 373.154L439.883 379.609L448.068 384.661H464.724L465.608 314.291L469.723 303.959V298.265L478.098 255.355L479.64 315.448L482.076 325.796L480.03 333.164L482.704 338.325L489.807 386.194H508.484L507.039 375.058C508.666 374.233 509.973 372.891 510.755 371.242C511.536 369.594 511.748 367.732 511.357 365.949L510.286 361.068L512.723 346.635L517.162 266.116L515.91 201.147L494.062 184.427L450.527 190.212Z" fill="#2F2E41"/>
<path d="M482.076 82.5213C491.66 82.5213 499.429 74.7464 499.429 65.1556C499.429 55.5647 491.66 47.7898 482.076 47.7898C472.493 47.7898 464.724 55.5647 464.724 65.1556C464.724 74.7464 472.493 82.5213 482.076 82.5213Z" fill="#9E616A"/>
<path d="M444.164 223.492C444.919 222.711 445.494 221.774 445.848 220.747C446.202 219.719 446.327 218.627 446.213 217.546C446.1 216.465 445.751 215.423 445.192 214.491C444.632 213.56 443.875 212.763 442.974 212.156L449.722 186.619L436.722 190.995L432.307 214.575C431.389 216.157 431.082 218.021 431.446 219.814C431.809 221.607 432.817 223.204 434.278 224.304C435.739 225.403 437.553 225.927 439.375 225.778C441.197 225.628 442.901 224.815 444.164 223.492H444.164Z" fill="#9E616A"/>
<path d="M451.265 100.883L448.474 100.304L446.095 101.622C446.095 101.622 439.447 110.493 439.447 118.624C439.447 126.755 431.322 205.109 431.322 205.109L446.095 211.762L457.912 150.409L451.265 100.883Z" fill="#CFCFDE"/>
<path d="M497.272 52.4233C497.272 52.4233 501.811 43.7404 491.826 42.951C491.826 42.951 483.314 35.2235 474.638 41.5383C474.638 41.5383 469.905 41.5383 467.318 46.8978C467.318 46.8978 463.596 45.4851 462.778 49.2659C462.778 49.2659 460.054 57.1594 462.778 64.2636C465.501 71.3678 466.406 72.1571 466.406 72.1571C466.406 72.1571 461.93 57.2628 472.824 56.4735C483.717 55.6841 495.907 48.8712 496.815 57.5541C497.723 66.237 499.089 68.3764 499.089 68.3764C499.089 68.3764 507.711 55.9754 497.272 52.4233Z" fill="#2F2E41"/>
<path d="M560.659 295.424C559.349 295.426 558.085 294.943 557.109 294.068L504.596 247.286C503.538 246.342 502.897 245.015 502.815 243.598C502.733 242.181 503.215 240.79 504.157 239.728L537.798 201.907C538.742 200.848 540.067 200.207 541.483 200.125C542.899 200.042 544.29 200.525 545.35 201.468L597.864 248.251C598.923 249.195 599.565 250.521 599.647 251.938C599.729 253.356 599.246 254.747 598.303 255.808L564.662 293.629C564.196 294.156 563.63 294.585 562.998 294.891C562.365 295.198 561.678 295.375 560.976 295.414C560.87 295.421 560.764 295.424 560.659 295.424Z" fill="white"/>
<path d="M560.658 295.768C559.265 295.77 557.919 295.256 556.881 294.326L504.367 247.544C503.241 246.538 502.559 245.126 502.472 243.618C502.384 242.11 502.898 240.629 503.9 239.499L537.541 201.678C538.546 200.551 539.956 199.869 541.463 199.782C542.97 199.694 544.45 200.208 545.579 201.211L598.092 247.993C599.22 248.998 599.903 250.41 599.99 251.918C600.078 253.427 599.563 254.908 598.559 256.037L564.918 293.858C564.423 294.419 563.821 294.875 563.148 295.201C562.474 295.527 561.743 295.717 560.996 295.758C560.883 295.764 560.771 295.768 560.658 295.768ZM541.795 201.147C541.186 201.146 540.583 201.274 540.027 201.523C539.47 201.773 538.973 202.137 538.568 202.593L504.927 240.415C504.167 241.271 503.777 242.395 503.844 243.538C503.91 244.682 504.427 245.753 505.282 246.516L557.795 293.298C558.219 293.675 558.712 293.965 559.248 294.152C559.784 294.338 560.351 294.417 560.917 294.384C561.483 294.351 562.037 294.207 562.547 293.96C563.058 293.712 563.514 293.367 563.891 292.943L597.532 255.122C598.294 254.266 598.684 253.142 598.618 251.998C598.551 250.854 598.033 249.783 597.178 249.021L544.664 202.239C543.875 201.534 542.853 201.145 541.795 201.147H541.795Z" fill="#2F2E41"/>
<path d="M579.702 259.605C579.134 259.606 578.587 259.397 578.164 259.02L536.943 222.297C536.714 222.095 536.528 221.85 536.395 221.576C536.262 221.302 536.184 221.004 536.165 220.7C536.147 220.396 536.189 220.091 536.289 219.803C536.389 219.515 536.545 219.249 536.747 219.022C536.95 218.794 537.195 218.609 537.469 218.476C537.744 218.343 538.041 218.266 538.346 218.249C538.65 218.232 538.954 218.275 539.242 218.376C539.529 218.477 539.794 218.633 540.021 218.837L581.242 255.559C581.593 255.871 581.84 256.283 581.952 256.739C582.063 257.196 582.033 257.675 581.866 258.114C581.699 258.553 581.403 258.93 581.016 259.197C580.629 259.463 580.171 259.605 579.702 259.605Z" fill="#7380EC"/>
<path d="M571.839 268.444C571.272 268.445 570.724 268.237 570.301 267.859L529.08 231.136C528.853 230.934 528.668 230.689 528.536 230.415C528.403 230.142 528.326 229.844 528.309 229.541C528.291 229.237 528.333 228.933 528.433 228.646C528.533 228.358 528.688 228.094 528.891 227.866C529.093 227.639 529.338 227.454 529.611 227.322C529.885 227.189 530.182 227.112 530.485 227.094C530.789 227.077 531.092 227.119 531.38 227.219C531.667 227.319 531.931 227.474 532.158 227.677L573.38 264.399C573.73 264.711 573.978 265.123 574.089 265.579C574.201 266.035 574.171 266.515 574.004 266.954C573.837 267.392 573.54 267.77 573.153 268.036C572.767 268.303 572.308 268.445 571.839 268.444H571.839Z" fill="#7380EC"/>
<path d="M563.977 277.285C563.409 277.286 562.861 277.077 562.438 276.699L521.217 239.977C520.989 239.775 520.804 239.53 520.671 239.256C520.539 238.982 520.461 238.685 520.443 238.381C520.426 238.077 520.468 237.772 520.568 237.485C520.667 237.197 520.823 236.932 521.025 236.705C521.228 236.477 521.473 236.292 521.746 236.16C522.02 236.027 522.318 235.95 522.621 235.932C522.925 235.915 523.229 235.958 523.516 236.058C523.804 236.158 524.068 236.314 524.295 236.517L565.516 273.239C565.867 273.551 566.115 273.963 566.226 274.419C566.338 274.875 566.308 275.355 566.141 275.794C565.974 276.233 565.677 276.61 565.291 276.877C564.904 277.143 564.446 277.285 563.976 277.285H563.977Z" fill="#7380EC"/>
<path d="M516.837 224.999C516.308 224.05 515.993 222.996 515.915 221.913C515.837 220.829 515.997 219.741 516.384 218.726C516.772 217.711 517.377 216.793 518.157 216.037C518.937 215.281 519.873 214.706 520.9 214.351L520.945 187.936L532.382 195.512L530.586 219.435C531.067 221.2 530.884 223.08 530.072 224.72C529.26 226.359 527.875 227.643 526.181 228.329C524.486 229.015 522.599 229.055 520.876 228.441C519.154 227.827 517.717 226.602 516.836 224.999H516.837Z" fill="#9E616A"/>
<path d="M517.894 108.122L523.003 103.193L526.757 105.904C526.757 105.904 530.45 110.339 533.405 123.645C536.359 136.95 533.405 210.13 533.405 210.13L517.155 207.913L519.371 169.475L512.723 136.95L517.894 108.122Z" fill="#CFCFDE"/>
<path d="M525.439 104.395L508.224 96.1653L496.536 85.316L475.223 85.1564L468.347 94.1011L450.197 100.272L453.222 162.907L451.159 167.724C451.159 167.724 452.596 169.023 453.253 169.749C453.909 170.476 452.346 176.559 452.346 176.559L451.464 183.176L453.909 184.925L450.73 188.683L449.941 194.607C449.941 194.607 505.435 180.804 515.92 203.671C516.474 204.879 515.11 193.071 515.11 193.071L513.746 184.427L515.099 176.668L517.162 174.604L513.702 171.142L515.92 154.715L525.439 104.395Z" fill="#2F2E41"/>
<path d="M135.036 243.253C135.463 242.167 135.648 241.001 135.576 239.837C135.504 238.672 135.178 237.537 134.62 236.512C134.063 235.488 133.288 234.598 132.35 233.905C131.411 233.213 130.333 232.734 129.19 232.504L125.366 204.401L114.278 214.101L119.609 239.301C119.35 241.248 119.813 243.223 120.912 244.851C122.01 246.479 123.667 247.647 125.569 248.135C127.47 248.622 129.484 248.394 131.229 247.494C132.974 246.594 134.329 245.085 135.036 243.253V243.253Z" fill="#FFB6B6"/>
<path d="M91.5949 118.757L88.5895 119.333L86.7729 121.622C86.7729 121.622 83.834 133.158 87.1819 141.22C90.5297 149.283 114.735 230.322 114.735 230.322L132.121 230.827L118.578 165.121L91.5949 118.757Z" fill="#2F2E41"/>
<path d="M160.135 239.13C159.335 238.282 158.729 237.269 158.362 236.162C157.995 235.054 157.875 233.88 158.01 232.721C158.145 231.562 158.533 230.447 159.146 229.454C159.758 228.461 160.581 227.615 161.556 226.975L154.634 199.472L168.536 204.335L172.978 229.707C173.944 231.417 174.25 233.422 173.837 235.343C173.424 237.263 172.322 238.966 170.739 240.127C169.156 241.289 167.202 241.829 165.248 241.645C163.294 241.461 161.475 240.567 160.135 239.13Z" fill="#FFB6B6"/>
<path d="M154.061 107.402L157.065 106.815L159.603 108.261C159.603 108.261 166.628 117.869 166.525 126.599C166.422 135.329 174.155 219.557 174.155 219.557L158.211 226.512L146.298 160.491L154.061 107.402Z" fill="#2F2E41"/>
</g>
<defs>
<clipPath id="clip0_323_580">
<rect width="600" height="406.08" fill="white" transform="translate(0 0.460007)"/>
</clipPath>
</defs>
</svg>
