<svg width="96" height="92" viewBox="0 0 96 92" fill="none" xmlns="http://www.w3.org/2000/svg">
<path d="M87.4268 0H8.17318C4.54292 0 1.60001 3.49066 1.60001 7.79661V84.2034C1.60001 88.5093 4.54292 92 8.17318 92H87.4268C91.0571 92 94 88.5093 94 84.2034V7.79661C94 3.49066 91.0571 0 87.4268 0Z" fill="#7380EC"/>
<path d="M56.705 56.4039C56.705 55.3717 56.8054 54.1917 57.0064 52.8643C57.2577 51.5369 57.5591 50.1849 57.9108 48.8083C58.2625 47.3824 58.6142 46.0059 58.9659 44.6785C59.3174 43.3511 59.619 42.1711 59.8701 41.1386C60.1715 39.8604 60.1465 38.8772 59.7948 38.1888C59.4431 37.5005 58.8403 37.1563 57.9861 37.1563C57.5841 37.1563 56.7803 37.5005 55.5745 38.1888C54.419 38.8772 53.1378 40.0816 51.731 41.8025C50.3745 43.474 49.0179 45.76 47.6614 48.6608C46.3552 51.5124 45.3254 55.1505 44.5716 59.5752C43.6171 60.0668 42.7127 60.3862 41.8586 60.5339C41.4065 60.6322 41.0045 60.7059 40.6528 60.7551C39.648 60.8041 38.9949 60.6322 38.6935 60.2388C38.3921 59.8946 38.4421 59.0098 38.8442 57.5839C39.0452 56.8958 39.3969 55.7896 39.8993 54.2654C40.4518 52.7413 40.9794 51.0945 41.4818 49.3244C41.9843 47.5053 42.4113 45.711 42.763 43.941C43.1648 42.1219 43.3658 40.5488 43.3658 39.2213C43.3658 38.2871 43.1901 37.648 42.8384 37.3038C42.537 36.9596 42.0846 36.7877 41.4818 36.7877C41.0298 36.7877 40.276 37.0334 39.2209 37.525C38.1658 38.0169 36.9852 38.9754 35.679 40.4013C34.3726 41.827 33.0664 43.818 31.7602 46.3746C30.504 48.882 29.4239 52.1515 28.5194 56.1827V56.0353C28.4191 56.4287 28.3187 56.8218 28.218 57.2152C28.1177 57.5594 28.0423 57.9281 27.992 58.3215C27.9417 58.7149 27.8663 59.0835 27.7659 59.4277L23.9978 61.0501C23.7467 61.1483 23.42 61.222 23.018 61.2713C22.6665 61.3205 22.3148 61.2468 21.9631 61.0501C21.6615 60.9026 21.4354 60.5584 21.2847 60.0176C21.134 59.4767 21.1844 58.6656 21.4354 57.5839L26.1834 38.3363C26.3341 37.6972 26.4597 37.0826 26.5601 36.4927C26.6605 35.9519 26.7108 35.4357 26.7108 34.9441C26.7611 34.4032 26.7359 33.9608 26.6355 33.6167C27.4896 33.2233 28.2433 32.9284 28.8964 32.7317C29.5495 32.535 30.077 32.3875 30.479 32.2893C30.9814 32.1416 31.4085 32.0678 31.7602 32.0678C33.3678 32.0678 33.8954 33.42 33.3427 36.1238C33.1417 36.9106 32.8403 38.0659 32.4383 39.59C33.393 38.41 34.3979 37.3038 35.4527 36.2715C36.5582 35.1898 37.6634 34.2311 38.7688 33.3953C39.874 32.5595 40.9794 31.8959 42.0846 31.4042C43.2402 30.9126 44.3706 30.6667 45.4761 30.6667C46.3302 30.6667 47.0336 30.9126 47.5861 31.4042C48.1891 31.8959 48.6412 32.5595 48.9426 33.3953C49.2943 34.182 49.4953 35.1406 49.5456 36.2715C49.5957 37.353 49.5456 38.4838 49.3949 39.6637C50.1987 38.6312 51.0779 37.599 52.0324 36.5665C53.0374 35.4848 54.0673 34.5262 55.1224 33.6904C56.2276 32.8546 57.3581 32.1663 58.5136 31.6254C59.6691 31.0846 60.8248 30.8144 61.9804 30.8144C63.3369 30.8144 64.3667 31.2075 65.0701 31.9941C65.8239 32.7809 66.3263 33.7887 66.5774 35.0178C66.8788 36.2468 66.9541 37.5742 66.8034 39.0001C66.703 40.4258 66.502 41.8025 66.2006 43.1299L63.6383 53.0855C63.0856 55.5436 63.6132 56.7728 65.2208 56.7728C66.477 56.7728 67.8585 56.1827 69.3658 55.0028C70.873 53.823 72.3301 52.4219 73.7367 50.7993C75.1939 49.1769 76.5504 47.5053 77.8063 45.7847C79.0624 44.0639 80.1175 42.6873 80.9714 41.655C81.273 41.3108 81.5744 41.1141 81.8758 41.0649C82.2275 41.0157 82.5039 41.0894 82.7049 41.2861C82.956 41.4336 83.0817 41.704 83.0817 42.0974C83.132 42.4906 83.0063 42.9824 82.7049 43.5723C81.7001 45.2931 80.469 47.2104 79.0121 49.3244C77.5552 51.3894 75.9473 53.3314 74.189 55.1505C72.4808 56.9695 70.6469 58.4934 68.6876 59.7226C66.7281 60.9518 64.6934 61.5662 62.5832 61.5662C61.8797 61.5662 61.1763 61.4925 60.4731 61.345C59.8198 61.1975 59.192 60.9271 58.5889 60.5339C58.0365 60.1405 57.5841 59.6244 57.2324 58.9851C56.8807 58.297 56.705 57.4364 56.705 56.4039Z" fill="white"/>
</svg>
